HIERARCHY
ROOT Hips
{
  OFFSET 5.84602e-005 68.8428 3.50346
  CHANNELS 6 Xposition Yposition Zposition Zrotation Xrotation Yrotation
  JOINT Spine
  {
    OFFSET 0 8.597 -4.6522
    CHANNELS 3 Zrotation Xrotation Yrotation
    JOINT Spine1
    {
      OFFSET 0 7.8454 0.4098
      CHANNELS 3 Zrotation Xrotation Yrotation
      JOINT Spine2
      {
        OFFSET 0 9.7078 -2.1609
        CHANNELS 3 Zrotation Xrotation Yrotation
        JOINT Neck
        {
          OFFSET 0 21.8761 -0.4549
          CHANNELS 3 Zrotation Xrotation Yrotation
          JOINT Head
          {
            OFFSET 0 12.3537 3.3602
            CHANNELS 3 Zrotation Xrotation Yrotation
            End Site
            {
              OFFSET 0.0001 18.9506 0.5657
            }
          }
        }
        JOINT LeftShoulder
        {
          OFFSET 2.2086 21.1115 7.2329
          CHANNELS 3 Zrotation Xrotation Yrotation
          JOINT LeftArm
          {
            OFFSET 13.1193 3.0282 -4.8998
            CHANNELS 3 Zrotation Xrotation Yrotation
            JOINT LeftForeArm
            {
              OFFSET 27.4081 -0.0973053 -0.2375
              CHANNELS 3 Zrotation Xrotation Yrotation
              JOINT LeftHand
              {
                OFFSET 22.8641 0.0662994 -0.1369
                CHANNELS 3 Zrotation Xrotation Yrotation
                JOINT LeftHandIndex1
                {
                  OFFSET 8.8614 0.775009 2.4612
                  CHANNELS 3 Zrotation Xrotation Yrotation
                  JOINT LeftHandIndex2
                  {
                    OFFSET 3.3146 -0.808304 0.5841
                    CHANNELS 3 Zrotation Xrotation Yrotation
                    JOINT LeftHandIndex3
                    {
                      OFFSET 2.2628 -0.552002 0.3989
                      CHANNELS 3 Zrotation Xrotation Yrotation
                      End Site
                      {
                        OFFSET 1.6102 -0.4807 0.2612
                      }
                    }
                  }
                }
                JOINT LeftHandMiddle1
                {
                  OFFSET 8.9937 0.895004 0.2143
                  CHANNELS 3 Zrotation Xrotation Yrotation
                  JOINT LeftHandMiddle2
                  {
                    OFFSET 4.0984 0.0113983 -0.0242
                    CHANNELS 3 Zrotation Xrotation Yrotation
                    JOINT LeftHandMiddle3
                    {
                      OFFSET 2.2716 0.00689697 -0.0138001
                      CHANNELS 3 Zrotation Xrotation Yrotation
                      End Site
                      {
                        OFFSET 2.0404 -0.1441 0.0027
                      }
                    }
                  }
                }
                JOINT LeftHandRing1
                {
                  OFFSET 8.5234 0.597198 -2.0164
                  CHANNELS 3 Zrotation Xrotation Yrotation
                  JOINT LeftHandRing2
                  {
                    OFFSET 3.7188 -0.188293 -0.2328
                    CHANNELS 3 Zrotation Xrotation Yrotation
                    JOINT LeftHandRing3
                    {
                      OFFSET 2.1191 -0.106598 -0.1332
                      CHANNELS 3 Zrotation Xrotation Yrotation
                      End Site
                      {
                        OFFSET 1.8737 -0.2304 -0.0886
                      }
                    }
                  }
                }
                JOINT LeftHandPinky1
                {
                  OFFSET 7.9094 -0.601089 -3.4825
                  CHANNELS 3 Zrotation Xrotation Yrotation
                  JOINT LeftHandPinky2
                  {
                    OFFSET 2.2874 -0.477005 -0.6314
                    CHANNELS 3 Zrotation Xrotation Yrotation
                    JOINT LeftHandPinky3
                    {
                      OFFSET 1.6774 -0.349396 -0.4633
                      CHANNELS 3 Zrotation Xrotation Yrotation
                      End Site
                      {
                        OFFSET 1.4888 -0.4091 -0.3416
                      }
                    }
                  }
                }
                JOINT LeftHandThumb1
                {
                  OFFSET 1.833 -1.3875 1.3896
                  CHANNELS 3 Zrotation Xrotation Yrotation
                  JOINT LeftHandThumb2
                  {
                    OFFSET 3.4129 -1.121 2.5732
                    CHANNELS 3 Zrotation Xrotation Yrotation
                    JOINT LeftHandThumb3
                    {
                      OFFSET 2.2474 -0.804199 1.6192
                      CHANNELS 3 Zrotation Xrotation Yrotation
                      End Site
                      {
                        OFFSET 1.6527 -0.5689 1.1317
                      }
                    }
                  }
                }
              }
            }
          }
        }
        JOINT RightShoulder
        {
          OFFSET -2.2086 21.1115 7.2329
          CHANNELS 3 Zrotation Xrotation Yrotation
          JOINT RightArm
          {
            OFFSET -13.1216 3.0287 -4.9007
            CHANNELS 3 Zrotation Xrotation Yrotation
            JOINT RightForeArm
            {
              OFFSET -27.4081 -0.0973053 -0.2375
              CHANNELS 3 Zrotation Xrotation Yrotation
              JOINT RightHand
              {
                OFFSET -22.8641 0.0664063 -0.1369
                CHANNELS 3 Zrotation Xrotation Yrotation
                JOINT RightHandIndex1
                {
                  OFFSET -8.8614 0.774994 2.4612
                  CHANNELS 3 Zrotation Xrotation Yrotation
                  JOINT RightHandIndex2
                  {
                    OFFSET -3.3146 -0.808304 0.5841
                    CHANNELS 3 Zrotation Xrotation Yrotation
                    JOINT RightHandIndex3
                    {
                      OFFSET -2.2628 -0.552002 0.3989
                      CHANNELS 3 Zrotation Xrotation Yrotation
                      End Site
                      {
                        OFFSET -1.6102 -0.4807 0.2612
                      }
                    }
                  }
                }
                JOINT RightHandMiddle1
                {
                  OFFSET -8.9937 0.894989 0.2143
                  CHANNELS 3 Zrotation Xrotation Yrotation
                  JOINT RightHandMiddle2
                  {
                    OFFSET -4.0984 0.0113983 -0.0242
                    CHANNELS 3 Zrotation Xrotation Yrotation
                    JOINT RightHandMiddle3
                    {
                      OFFSET -2.2716 0.00691223 -0.0138001
                      CHANNELS 3 Zrotation Xrotation Yrotation
                      End Site
                      {
                        OFFSET -2.0404 -0.1441 0.0027
                      }
                    }
                  }
                }
                JOINT RightHandRing1
                {
                  OFFSET -8.5234 0.597198 -2.0164
                  CHANNELS 3 Zrotation Xrotation Yrotation
                  JOINT RightHandRing2
                  {
                    OFFSET -3.7188 -0.188309 -0.2328
                    CHANNELS 3 Zrotation Xrotation Yrotation
                    JOINT RightHandRing3
                    {
                      OFFSET -2.1191 -0.106598 -0.1332
                      CHANNELS 3 Zrotation Xrotation Yrotation
                      End Site
                      {
                        OFFSET -1.8737 -0.2304 -0.0886
                      }
                    }
                  }
                }
                JOINT RightHandPinky1
                {
                  OFFSET -7.9094 -0.601105 -3.4825
                  CHANNELS 3 Zrotation Xrotation Yrotation
                  JOINT RightHandPinky2
                  {
                    OFFSET -2.2874 -0.477005 -0.6314
                    CHANNELS 3 Zrotation Xrotation Yrotation
                    JOINT RightHandPinky3
                    {
                      OFFSET -1.6774 -0.349396 -0.4633
                      CHANNELS 3 Zrotation Xrotation Yrotation
                      End Site
                      {
                        OFFSET -1.4888 -0.4091 -0.3416
                      }
                    }
                  }
                }
                JOINT RightHandThumb1
                {
                  OFFSET -1.833 -1.38751 1.3896
                  CHANNELS 3 Zrotation Xrotation Yrotation
                  JOINT RightHandThumb2
                  {
                    OFFSET -3.41299 -1.12099 2.5732
                    CHANNELS 3 Zrotation Xrotation Yrotation
                    JOINT RightHandThumb3
                    {
                      OFFSET -2.24741 -0.804108 1.6192
                      CHANNELS 3 Zrotation Xrotation Yrotation
                      End Site
                      {
                        OFFSET -1.6527 -0.5689 1.1317
                      }
                    }
                  }
                }
              }
            }
          }
        }
      }
    }
  }
  JOINT RightUpLeg
  {
    OFFSET -9.1966 3.8861 -0.7581
    CHANNELS 3 Zrotation Xrotation Yrotation
    JOINT RightLeg
    {
      OFFSET -0.7359 -41.0265 0
      CHANNELS 3 Zrotation Xrotation Yrotation
      JOINT RightFoot
      {
        OFFSET 0 -40.2855 0
        CHANNELS 3 Zrotation Xrotation Yrotation
        JOINT RightToeBase
        {
          OFFSET 0 -5.6122 11.7359
          CHANNELS 3 Zrotation Xrotation Yrotation
          End Site
          {
            OFFSET 0 0 7.8731
          }
        }
      }
    }
  }
  JOINT LeftUpLeg
  {
    OFFSET 9.1965 3.8864 -0.7581
    CHANNELS 3 Zrotation Xrotation Yrotation
    JOINT LeftLeg
    {
      OFFSET 0.7359 -41.0268 0
      CHANNELS 3 Zrotation Xrotation Yrotation
      JOINT LeftFoot
      {
        OFFSET 0 -40.2855 0
        CHANNELS 3 Zrotation Xrotation Yrotation
        JOINT LeftToeBase
        {
          OFFSET 0 -5.6122 11.7359
          CHANNELS 3 Zrotation Xrotation Yrotation
          End Site
          {
            OFFSET 0 0 7.8731
          }
        }
      }
    }
  }
}
MOTION
Frames:	4
Frame Time:	0.0333333
5.84602e-005 68.8428 3.50346 0 0 -0 0 0 -0 0 0 -0 0 0 -0 0 0 -0 0 0 -0 0 0 -0 0 0 -0 0 0 -0 0 0 -0 0 0 -0 0 0 -0 0 0 -0 0 0 -0 -0.0146107 -8.87603e-005 -2.63497e-007 2.99804e-018 -2.42657e-020 -1.42182e-022 0 0 -0 -0.0187562 -0.001176 5.858e-005 5.06224e-018 3.88251e-019 1.21329e-020 0 0 -0 -0.012269 -0.00324817 0.000675346 -1.74678e-018 3.88251e-019 -0 0 0 -0 0 0 -0 0 0 -0 0 0 -0 0 0 -0 0 0 -0 0 0 -0 0 0 -0 0 0 -0 0 0 -0 0 0 -0 0.0149955 -9.10982e-005 2.64101e-007 -9.69331e-018 1.21329e-020 -4.7394e-023 0 0 -0 0.0189956 -0.00119102 -5.96516e-005 -5.41541e-019 0 2.42657e-020 0 0 -0 0.0122698 -0.00324857 -0.000673756 -2.00796e-019 0 -1.94126e-019 0 0 -0 0 0 -0 0 0 -0 3.39842 1.33031 -0.0637918 -5.65207e-008 0.834868 -0.000436188 -3.39935 -2.16518 -0.0642563 -8.89002e-024 -1.18485e-023 -1.48106e-024 -3.39844 1.35642 0.0640283 -3.18788e-007 0.782166 -0.000588827 3.39931 -2.13858 0.0634662 1.1399e-023 0 -0 
1.94254 36.6755 36.7937 -0.0136914 0.00203941 -100.022 0.969823 0.510529 -0.136433 1.94098 1.01861 -0.281456 1.94098 1.01861 -0.281448 -0.00754578 7.39811 -0.165051 0.000830172 -27.5576 -0.0922036 4.60794 -44.9368 28.5766 -36.2222 41.776 1.0263 10.9615 -19.0143 -28.6005 -4.69101 -25.1431 2.12725 4.80474e-007 1.98219e-006 3.02478e-007 1.28548e-006 -6.88481e-007 -8.68441e-007 -3.18055e-015 -7.95139e-016 -7.95139e-016 4.80474e-007 1.98219e-006 3.02478e-007 -0.0145838 -9.27455e-005 2.69205e-007 -3.18055e-015 5.56597e-015 -4.77083e-015 4.80474e-007 1.98219e-006 3.02478e-007 -0.0186858 -0.0011679 5.79185e-005 -3.18055e-015 -7.95139e-016 -1.59028e-015 4.80474e-007 1.98219e-006 3.02478e-007 -0.0122995 -0.00325841 0.000679645 4.79401e-007 1.98187e-006 3.02738e-007 4.80474e-007 1.98219e-006 3.02478e-007 1.28548e-006 -6.88481e-007 -8.68441e-007 -3.18055e-015 -7.95139e-016 -7.95139e-016 -1.63719 -32.7255 -4.84523 27.9846 5.08132 7.54655 6.25282 1.41995 50.9982 6.87665 -11.8372 -22.6323 -1.49515e-006 -1.81454e-007 1.02845e-006 7.27804e-007 2.5698e-006 -1.47539e-006 -1.49515e-006 -1.81454e-007 1.02845e-006 -1.49515e-006 -1.81454e-007 1.02845e-006 0.015018 -8.46304e-005 2.88876e-006 -1.49624e-006 -1.81313e-007 1.02847e-006 -1.49515e-006 -1.81454e-007 1.02845e-006 0.018965 -0.00118696 -6.30298e-005 -1.49652e-006 -1.81197e-007 1.0285e-006 -1.49515e-006 -1.81454e-007 1.02845e-006 0.0122635 -0.00324325 -0.000676809 -1.49601e-006 -1.81115e-007 1.02856e-006 -1.49515e-006 -1.81454e-007 1.02845e-006 7.27804e-007 2.5698e-006 -1.47539e-006 -1.49515e-006 -1.81454e-007 1.02845e-006 -1.06512 -10.1805 -2.7198 -36.7515 81.7162 35.3904 -4.9697 20.91 -6.47921 -2.43369e-007 -4.03321e-008 3.71676e-006 1.62367 -12.3409 3.23573 30.0106 83.0589 -28.9096 -2.2791 30.9303 -9.87764 7.68171e-007 -2.23281e-006 -4.19797e-007 
6.03665 21.915 51.0217 -0.0128701 0.0139297 -145.032 1.26473 0.934711 0.123238 2.52794 1.87191 0.22593 2.52794 1.87191 0.225909 -0.00761152 10.729 0.582953 0.0793454 -39.2305 0.36831 30.0209 -57.1176 57.7193 -53.7403 60.5913 2.55883 9.90567 -23.7178 -44.2537 -5.97778 -36.6987 4.28739 -1.1887e-006 -5.91593e-009 -7.85807e-008 -2.37741e-006 -1.18319e-008 -1.57161e-007 -1.11012e-006 1.90635e-007 -1.26728e-006 -1.1887e-006 -5.91593e-009 -7.85807e-008 -0.014572 -9.19452e-005 -1.05024e-006 -1.1101e-006 1.90796e-007 -1.26726e-006 -1.1887e-006 -5.91593e-009 -7.85807e-008 -0.0187628 -0.00117729 5.85852e-005 -1.1101e-006 1.90845e-007 -1.26724e-006 -1.1887e-006 -5.91593e-009 -7.85807e-008 -0.0122676 -0.0032488 0.000675731 -1.11014e-006 1.90783e-007 -1.26723e-006 -1.1887e-006 -5.91593e-009 -7.85807e-008 -2.37741e-006 -1.18319e-008 -1.57161e-007 -1.11012e-006 1.90635e-007 -1.26728e-006 -7.4423 -46.5855 -12.4089 40.1416 7.30237 10.9979 8.44835 0.918231 74.2781 6.8428 -16.9417 -32.5332 -1.10348e-032 3.97569e-016 1.59028e-015 -7.1726e-032 2.5842e-015 1.59028e-015 3.18055e-015 -9.93923e-016 1.59028e-015 -1.10348e-032 3.97569e-016 1.59028e-015 0.0149925 -8.6506e-005 9.56445e-008 -6.36111e-015 -4.96962e-015 1.19271e-015 -1.10348e-032 3.97569e-016 1.59028e-015 0.0189947 -0.00118679 -6.19466e-005 6.36111e-015 7.15625e-015 -0 -1.10348e-032 3.97569e-016 1.59028e-015 0.0122878 -0.00324804 -0.000673457 -3.18055e-015 -1.59028e-015 -0 -1.10348e-032 3.97569e-016 1.59028e-015 -7.1726e-032 2.5842e-015 1.59028e-015 3.18055e-015 -9.93923e-016 1.59028e-015 -3.02464 -14.519 -5.37503 -166.633 59.7869 161.474 -2.99849 31.347 -11.101 -8.55849e-007 -1.25328e-006 3.76457e-006 4.02565 -18.3647 5.99526 169.943 59.1085 -165.668 0.372952 45.6575 -17.4486 -7.43304e-007 -3.43708e-007 2.27616e-007 
4.90576 24.7397 47.7432 -0.0140974 0.0111947 -135.03 0.87447 1.26695 0.756519 1.73276 2.54526 1.49411 1.73276 2.54527 1.49411 -0.000345435 9.98833 2.24396 0.186113 -35.0134 1.34751 22.2715 -58.1421 46.7183 -50.1407 56.477 2.66677 10.8801 -23.2901 -42.5474 -5.69768 -34.7321 5.51616 2.54205e-008 -2.08334e-009 3.08401e-008 -3.3894e-008 2.77778e-009 -4.11201e-008 4.23674e-008 -3.47222e-009 5.14001e-008 2.54205e-008 -2.08334e-009 3.08401e-008 -0.0145777 -8.14809e-005 3.33368e-009 9.57219e-008 3.40984e-006 2.41782e-007 2.54205e-008 -2.08334e-009 3.08401e-008 -0.0187886 -0.00118053 5.93638e-005 4.23679e-008 -3.48068e-009 5.13991e-008 2.54205e-008 -2.08334e-009 3.08401e-008 -0.0122827 -0.00325239 0.000673821 4.23689e-008 -3.47798e-009 5.13985e-008 2.54205e-008 -2.08334e-009 3.08401e-008 -3.3894e-008 2.77778e-009 -4.11201e-008 4.23674e-008 -3.47222e-009 5.14001e-008 -10.2685 -41.9049 -17.9562 37.4686 6.82645 10.2459 7.92253 1.16907 69.859 6.97774 -18.8847 -28.1377 3.18055e-015 -1.07344e-014 2.38542e-015 3.42078e-031 -1.23246e-014 1.59028e-015 -2.32368e-006 -1.6094e-006 1.74097e-006 3.18055e-015 -1.07344e-014 2.38542e-015 0.015025 -9.35045e-005 -1.99874e-006 -2.32378e-006 -1.60917e-006 1.74119e-006 3.18055e-015 -1.07344e-014 2.38542e-015 0.0190295 -0.00119359 -5.66298e-005 -2.32379e-006 -1.60911e-006 1.74127e-006 3.18055e-015 -1.07344e-014 2.38542e-015 0.0122612 -0.0032485 -0.000679136 -2.32371e-006 -1.60921e-006 1.74122e-006 3.18055e-015 -1.07344e-014 2.38542e-015 3.42078e-031 -1.23246e-014 1.59028e-015 -2.32368e-006 -1.6094e-006 1.74097e-006 -2.5951 -13.5551 -4.63362 -162.875 67.034 158.79 -3.58181 28.3723 -9.87873 -1.45399e-006 -5.82709e-006 4.76028e-006 3.48566 -16.9656 5.26205 167.368 66.5261 -163.997 -0.652216 41.727 -15.4665 2.37154e-007 1.2503e-006 -3.35115e-006 
